<?xml version="1.0" ?><!DOCTYPE svg  PUBLIC '-//W3C//DTD SVG 1.1//EN'  'http://www.w3.org/Graphics/SVG/1.1/DTD/svg11.dtd'><svg height="128px" id="New" style="enable-background:new 0 0 128 128;" version="1.1" viewBox="0 0 128 128" width="128px" xml:space="preserve" xmlns="http://www.w3.org/2000/svg" xmlns:xlink="http://www.w3.org/1999/xlink"><g><g id="XMLID_8_"><g><path d="M118.62,34.79c0.68,1.01,0.42,2.39-0.59,3.07l-1.48,0.99c-0.79,0.53-1.859,0.32-2.39-0.47     l-0.62-0.92l-2.39-3.54l-0.62-0.93c-0.54-0.79-0.33-1.86,0.46-2.39l1.479-0.99c1.011-0.69,2.38-0.42,3.061,0.59L118.62,34.79z" style="fill:#B3E5FC;"/><path d="M104.94,12.83c1,0.69,1.26,2.06,0.569,3.07l-1.01,1.46c-0.54,0.79-1.61,0.99-2.39,0.45     l-0.931-0.64l-3.51-2.41l-0.92-0.63c-0.79-0.54-0.99-1.61-0.45-2.4l1.01-1.46C98,9.26,99.37,9.01,100.38,9.7L104.94,12.83z" style="fill:#B3E5FC;"/><path d="M94.38,50.38c0.19,1.91,0.26,3.81,0.26,5.65c0,3.42-1.029,7.09-2.83,10.81     c-0.76-4.25-2.09-8.31-3.909-12.09l0.979-0.66l3.73-2.51L94.38,50.38z" style="fill:#B3E5FC;"/><path d="M93.67,45.66L90.2,48l-3.73,2.51l-0.609,0.41c-1.181-1.98-2.5-3.85-3.94-5.63v-0.01l2.45-3.57     L86.92,38l1.98-2.88C91.37,38,92.84,41.71,93.67,45.66z" style="fill:#B3E5FC;"/><path d="M85.65,32.23l-2.28,3.33l-2.55,3.71l-1.86,2.7c-0.79-0.81-1.59-1.58-2.44-2.32v-0.01     c-0.189-3.54-0.77-6.96-1.689-10.25c0.07,0,0.13,0,0.189,0C79.46,29.39,82.94,30.45,85.65,32.23z" style="fill:#B3E5FC;"/><path d="M78.96,41.97l-2.49,3.63h-0.01c0.09-1.11,0.13-2.23,0.13-3.36c0-0.88-0.03-1.73-0.07-2.59     C77.37,40.39,78.17,41.16,78.96,41.97z" style="fill:#B3E5FC;"/><path d="M74.58,55.96l7.34-10.67c1.44,1.78,2.76,3.65,3.94,5.63c0.729,1.24,1.42,2.52,2.04,3.83     c1.819,3.78,3.149,7.84,3.909,12.09c-1.76,3.65-4.239,7.35-7.199,10.91c-1.66-7.88-5.261-15.04-10.28-20.96     C74.42,56.51,74.5,56.24,74.58,55.96z" style="fill:#B3E5FC;"/><path d="M76.52,39.64v0.01c0.04,0.86,0.07,1.71,0.07,2.59c0,1.13-0.04,2.25-0.13,3.36     c-0.24,3.57-0.88,7.04-1.88,10.36c-0.08,0.28-0.16,0.55-0.25,0.83c-1.16,3.63-2.75,7.08-4.71,10.27v0.01     c-1.271,2.07-2.68,4.03-4.24,5.88c-3.77-2.38-7.19-5.27-10.15-8.58c4.18-4.66,7.45-10.15,9.54-16.19     c1.63-4.68,2.54-9.7,2.61-14.92c0.01-0.23,0.01-0.47,0.01-0.7c0-0.61-0.01-1.22-0.029-1.82c2.12-0.82,4.6-1.33,7.47-1.35     C75.75,32.68,76.33,36.1,76.52,39.64z" style="fill:#B3E5FC;"/><path d="M84.61,77.75c-0.53,0.64-1.061,1.27-1.62,1.89c-6.38-1.05-12.351-3.37-17.61-6.69     c1.561-1.85,2.97-3.81,4.24-5.88v-0.01c1.96-3.19,3.55-6.64,4.71-10.27C79.35,62.71,82.95,69.87,84.61,77.75z" style="fill:#B3E5FC;"/><path d="M38.73,76.31c2.76,3.6,6.03,6.79,9.69,9.47c5.33,3.9,11.49,6.72,18.17,8.14     c-3.87,2.59-7.77,4.7-11.4,6.11c-2.6-1.01-5.33-2.38-8.1-4.02c-1.21-0.72-2.42-1.49-3.64-2.31c-1.2-0.82-2.41-1.68-3.6-2.59     c-0.31-0.74-0.58-1.48-0.84-2.24c-1.28-3.7-2.11-7.62-2.43-11.68c-0.11-1.27-0.16-2.55-0.16-3.85c0-0.1,0-0.2,0-0.3     C37.15,74.16,37.92,75.25,38.73,76.31z" style="fill:#B3E5FC;"/><path d="M57.57,80.36c5.36,3.36,11.43,5.68,17.94,6.7c-2.87,2.52-5.89,4.84-8.92,6.86     c-6.68-1.42-12.84-4.24-18.17-8.14c-3.66-2.68-6.93-5.87-9.69-9.47c-0.81-1.06-1.58-2.15-2.31-3.27     c0.01-1.25,0.07-2.48,0.17-3.71c0.31-3.82,1.08-7.52,2.26-11.04c0.96,2.33,2.11,4.56,3.43,6.68c1.44,2.34,3.08,4.54,4.9,6.58     C50.19,74.96,53.69,77.93,57.57,80.36z" style="fill:#B3E5FC;"/><path d="M56.94,40.33c-0.25,1.07-0.53,2.12-0.85,3.16c-1.47,4.76-3.67,9.21-6.47,13.2     c-1.95-3.31-3.51-6.89-4.62-10.65c1.19-1.71,2.49-3.33,3.89-4.86c1-1.1,2.06-2.15,3.16-3.15c1.27,1.85,2.08,3.63,2.56,4.88     c0.41,1.08,0.58,1.76,0.58,1.76s0.13-0.52,0.43-1.37C55.9,42.53,56.33,41.5,56.94,40.33z" style="fill:#B3E5FC;"/><path d="M67.36,30.74c0.02,0.6,0.029,1.21,0.029,1.82c0,0.23,0,0.47-0.01,0.7     c-0.07,5.22-0.979,10.24-2.61,14.92c-2.09,6.04-5.36,11.53-9.54,16.19c-2.11-2.36-4-4.93-5.61-7.68c2.8-3.99,5-8.44,6.47-13.2     c0.32-1.04,0.6-2.09,0.85-3.16c1.43-2.7,3.87-6.08,7.84-8.37C65.58,31.5,66.43,31.09,67.36,30.74z" style="fill:#B3E5FC;"/><path d="M82.99,79.64c-2.3,2.59-4.83,5.09-7.48,7.42c-6.51-1.02-12.58-3.34-17.94-6.7     c-3.88-2.43-7.38-5.4-10.39-8.81c-1.82-2.04-3.46-4.24-4.9-6.58c-1.32-2.12-2.47-4.35-3.43-6.68c1.45-4.4,3.54-8.52,6.15-12.25     c1.11,3.76,2.67,7.34,4.62,10.65c1.61,2.75,3.5,5.32,5.61,7.68c2.96,3.31,6.38,6.2,10.15,8.58     C70.64,76.27,76.61,78.59,82.99,79.64z" style="fill:#B3E5FC;"/><path d="M52.05,38.03c-1.1,1-2.16,2.05-3.16,3.15c-1.4,1.53-2.7,3.15-3.89,4.86     c-2.61,3.73-4.7,7.85-6.15,12.25c-1.18,3.52-1.95,7.22-2.26,11.04c-0.1,1.23-0.16,2.46-0.17,3.71c0,0.1,0,0.2,0,0.3     c0,1.3,0.05,2.58,0.16,3.85c0.32,4.06,1.15,7.98,2.43,11.68c0.26,0.76,0.53,1.5,0.84,2.24c-0.83-0.62-1.64-1.26-2.45-1.92     c-0.1-0.08-0.19-0.15-0.29-0.23c-1.15-0.94-2.28-1.92-3.38-2.92c-0.78-0.71-1.54-1.42-2.29-2.15c-0.53-1.55-0.99-3.14-1.36-4.76     c-0.44-1.89-0.76-3.83-0.96-5.8c-0.16-1.63-0.25-3.27-0.25-4.94c0-3.63,0.4-7.17,1.17-10.56c1.09-4.82,2.91-9.36,5.34-13.5     c0.89-1.53,1.87-3.01,2.92-4.42c1.46-1.96,3.07-3.81,4.81-5.52c0.83-0.82,1.7-1.61,2.59-2.37C48.55,33.68,50.6,35.91,52.05,38.03     z" style="fill:#B3E5FC;"/><path d="M36.33,29.41c2.58,0.1,4.83,0.6,6.78,1.36c0.93,0.36,1.79,0.79,2.59,1.25     c-0.89,0.76-1.76,1.55-2.59,2.37c-1.74,1.71-3.35,3.56-4.81,5.52c-1.05,1.41-2.03,2.89-2.92,4.42c-2.43,4.14-4.25,8.68-5.34,13.5     c-0.77,3.39-1.17,6.93-1.17,10.56c0,1.67,0.09,3.31,0.25,4.94c0.2,1.97,0.52,3.91,0.96,5.8c0.37,1.62,0.83,3.21,1.36,4.76     c-1.41-1.38-2.76-2.79-4.04-4.24c-1.29-1.45-2.51-2.93-3.63-4.42c-0.5-0.67-0.99-1.35-1.45-2.03c-0.67-3.15-1.01-6.41-1.01-9.76     c0-8.03,1.98-15.59,5.49-22.23c1.04-1.98,2.22-3.87,3.52-5.67c1.58-2.2,3.35-4.26,5.29-6.15C35.85,29.39,36.09,29.4,36.33,29.41z     " style="fill:#B3E5FC;"/><path d="M35.61,29.39c-1.94,1.89-3.71,3.95-5.29,6.15c-1.3,1.8-2.48,3.69-3.52,5.67     c-3.51,6.64-5.49,14.2-5.49,22.23c0,3.35,0.34,6.61,1.01,9.76c-4.04-5.83-6.59-11.82-6.59-17.17c0-3.66,0.3-7.59,1.17-11.26     c1.35-5.62,4.06-10.67,9.22-13.35c1.1-0.57,2.3-1.03,3.63-1.38c0.01,0,0.01,0,0.02,0c0.78-0.2,1.61-0.36,2.48-0.46     c0.98-0.13,2.01-0.19,3.11-0.19C35.44,29.39,35.52,29.39,35.61,29.39z" style="fill:#B3E5FC;"/></g><g><path d="     M97.67,14.76c-0.14,0.17-0.27,0.34-0.39,0.52L85.65,32.23l-2.28,3.33l-2.55,3.71l-1.86,2.7l-2.49,3.63" style="fill:none;stroke:#029AE4;stroke-width:2;stroke-linecap:round;stroke-linejoin:round;stroke-miterlimit:10;"/><path d="     M101.18,17.17v0.01c-0.1,0.18-0.22,0.36-0.34,0.54L88.9,35.12L86.92,38l-2.55,3.71l-2.45,3.57v0.01l-7.34,10.67" style="fill:none;stroke:#029AE4;stroke-width:2;stroke-linecap:round;stroke-linejoin:round;stroke-miterlimit:10;"/><path d="     M43.45,93.7l-12.72,18.53c-1.3,1.89-1.94,4.16-1.82,6.46c2.18-0.71,4.07-2.13,5.37-4.02l12.81-18.66" style="fill:none;stroke:#029AE4;stroke-width:2;stroke-linecap:round;stroke-linejoin:round;stroke-miterlimit:10;"/><path d="     M97.67,14.76l-0.92-0.63c-0.79-0.54-0.99-1.61-0.45-2.4l1.01-1.46C98,9.26,99.37,9.01,100.38,9.7l4.561,3.13     c1,0.69,1.26,2.06,0.569,3.07l-1.01,1.46c-0.54,0.79-1.61,0.99-2.39,0.45l-0.931-0.64L97.67,14.76z" style="fill:none;stroke:#029AE4;stroke-width:2;stroke-linecap:round;stroke-linejoin:round;stroke-miterlimit:10;"/><path d="     M33.73,86.04L13.07,99.96c-1.91,1.28-3.34,3.16-4.07,5.33c2.29,0.14,4.57-0.48,6.47-1.76l21.64-14.57" style="fill:none;stroke:#029AE4;stroke-width:2;stroke-linecap:round;stroke-linejoin:round;stroke-miterlimit:10;"/><path d="     M85.86,50.92l0.609-0.41L90.2,48l3.47-2.34l16.93-11.4c0.181-0.12,0.36-0.24,0.551-0.34" style="fill:none;stroke:#029AE4;stroke-width:2;stroke-linecap:round;stroke-linejoin:round;stroke-miterlimit:10;"/><path d="     M87.9,54.75l0.979-0.66l3.73-2.51l1.77-1.2l18.63-12.54c0.181-0.12,0.36-0.25,0.521-0.38" style="fill:none;stroke:#029AE4;stroke-width:2;stroke-linecap:round;stroke-linejoin:round;stroke-miterlimit:10;"/><path d="     M111.15,33.92l-0.62-0.93c-0.54-0.79-0.33-1.86,0.46-2.39l1.479-0.99c1.011-0.69,2.38-0.42,3.061,0.59l3.09,4.59     c0.68,1.01,0.42,2.39-0.59,3.07l-1.48,0.99c-0.79,0.53-1.859,0.32-2.39-0.47l-0.62-0.92L111.15,33.92z" style="fill:none;stroke:#029AE4;stroke-width:2;stroke-linecap:round;stroke-linejoin:round;stroke-miterlimit:10;"/><path d="     M88.9,35.12c2.47,2.88,3.939,6.59,4.77,10.54" style="fill:none;stroke:#029AE4;stroke-width:2;stroke-linecap:round;stroke-linejoin:round;stroke-miterlimit:10;"/><path d="     M94.38,50.38c0.19,1.91,0.26,3.81,0.26,5.65c0,3.42-1.029,7.09-2.83,10.81c-1.76,3.65-4.239,7.35-7.199,10.91     c-0.53,0.64-1.061,1.27-1.62,1.89c-2.3,2.59-4.83,5.09-7.48,7.42c-2.87,2.52-5.89,4.84-8.92,6.86c-3.87,2.59-7.77,4.7-11.4,6.11     c-2.6-1.01-5.33-2.38-8.1-4.02c-1.21-0.72-2.42-1.49-3.64-2.31c-1.2-0.82-2.41-1.68-3.6-2.59c-0.83-0.62-1.64-1.26-2.45-1.92     c-0.1-0.08-0.19-0.15-0.29-0.23c-1.15-0.94-2.28-1.92-3.38-2.92c-0.78-0.71-1.54-1.42-2.29-2.15c-1.41-1.38-2.76-2.79-4.04-4.24     c-1.29-1.45-2.51-2.93-3.63-4.42c-0.5-0.67-0.99-1.35-1.45-2.03c-4.04-5.83-6.59-11.82-6.59-17.17c0-3.66,0.3-7.59,1.17-11.26     c1.35-5.62,4.06-10.67,9.22-13.35c1.1-0.57,2.3-1.03,3.63-1.38c0.01,0,0.01,0,0.02,0c0.78-0.2,1.61-0.36,2.48-0.46     c0.98-0.13,2.01-0.19,3.11-0.19c0.08,0,0.16,0,0.25,0c0.24,0,0.48,0.01,0.72,0.02c2.58,0.1,4.83,0.6,6.78,1.36     c0.93,0.36,1.79,0.79,2.59,1.25c2.85,1.66,4.9,3.89,6.35,6.01c1.27,1.85,2.08,3.63,2.56,4.88c0.41,1.08,0.58,1.76,0.58,1.76     s0.13-0.52,0.43-1.37c0.28-0.77,0.71-1.8,1.32-2.97c1.43-2.7,3.87-6.08,7.84-8.37c0.8-0.46,1.65-0.87,2.581-1.22     c2.12-0.82,4.6-1.33,7.47-1.35c0.07,0,0.13,0,0.189,0c4.44,0,7.921,1.06,10.631,2.84" style="fill:none;stroke:#029AE4;stroke-width:2;stroke-linecap:round;stroke-linejoin:round;stroke-miterlimit:10;"/><path d="     M22.32,73.2c-0.67-3.15-1.01-6.41-1.01-9.76c0-8.03,1.98-15.59,5.49-22.23c1.04-1.98,2.22-3.87,3.52-5.67     c1.58-2.2,3.35-4.26,5.29-6.15" style="fill:none;stroke:#029AE4;stroke-width:2;stroke-linecap:round;stroke-linejoin:round;stroke-miterlimit:10;"/><path d="     M66.59,93.92c-6.68-1.42-12.84-4.24-18.17-8.14c-3.66-2.68-6.93-5.87-9.69-9.47c-0.81-1.06-1.58-2.15-2.31-3.27" style="fill:none;stroke:#029AE4;stroke-width:2;stroke-linecap:round;stroke-linejoin:round;stroke-miterlimit:10;"/><path d="     M38.85,58.29c0.96,2.33,2.11,4.56,3.43,6.68c1.44,2.34,3.08,4.54,4.9,6.58c3.01,3.41,6.51,6.38,10.39,8.81     c5.36,3.36,11.43,5.68,17.94,6.7" style="fill:none;stroke:#029AE4;stroke-width:2;stroke-linecap:round;stroke-linejoin:round;stroke-miterlimit:10;"/><path d="     M82.99,79.64c-6.38-1.05-12.351-3.37-17.61-6.69c-3.77-2.38-7.19-5.27-10.15-8.58c-2.11-2.36-4-4.93-5.61-7.68     c-1.95-3.31-3.51-6.89-4.62-10.65" style="fill:none;stroke:#029AE4;stroke-width:2;stroke-linecap:round;stroke-linejoin:round;stroke-miterlimit:10;"/><path d="     M76.52,39.65c0.04,0.86,0.07,1.71,0.07,2.59c0,1.13-0.04,2.25-0.13,3.36c-0.24,3.57-0.88,7.04-1.88,10.36     c-0.08,0.28-0.16,0.55-0.25,0.83c-1.16,3.63-2.75,7.08-4.71,10.27v0.01c-1.271,2.07-2.68,4.03-4.24,5.88" style="fill:none;stroke:#029AE4;stroke-width:2;stroke-linecap:round;stroke-linejoin:round;stroke-miterlimit:10;"/><path d="     M74.83,29.39c0.92,3.29,1.5,6.71,1.689,10.25" style="fill:none;stroke:#029AE4;stroke-width:2;stroke-linecap:round;stroke-linejoin:round;stroke-miterlimit:10;"/><path d="     M67.36,30.74c0.02,0.6,0.029,1.21,0.029,1.82c0,0.23,0,0.47-0.01,0.7c-0.07,5.22-0.979,10.24-2.61,14.92     c-2.09,6.04-5.36,11.53-9.54,16.19" style="fill:none;stroke:#029AE4;stroke-width:2;stroke-linecap:round;stroke-linejoin:round;stroke-miterlimit:10;"/><path d="     M56.94,40.33c-0.25,1.07-0.53,2.12-0.85,3.16c-1.47,4.76-3.67,9.21-6.47,13.2" style="fill:none;stroke:#029AE4;stroke-width:2;stroke-linecap:round;stroke-linejoin:round;stroke-miterlimit:10;"/><path d="     M31.44,83.89c-0.53-1.55-0.99-3.14-1.36-4.76c-0.44-1.89-0.76-3.83-0.96-5.8c-0.16-1.63-0.25-3.27-0.25-4.94     c0-3.63,0.4-7.17,1.17-10.56c1.09-4.82,2.91-9.36,5.34-13.5c0.89-1.53,1.87-3.01,2.92-4.42c1.46-1.96,3.07-3.81,4.81-5.52     c0.83-0.82,1.7-1.61,2.59-2.37" style="fill:none;stroke:#029AE4;stroke-width:2;stroke-linecap:round;stroke-linejoin:round;stroke-miterlimit:10;"/><path d="     M39.85,91.11c-0.31-0.74-0.58-1.48-0.84-2.24c-1.28-3.7-2.11-7.62-2.43-11.68c-0.11-1.27-0.16-2.55-0.16-3.85c0-0.1,0-0.2,0-0.3     c0.01-1.25,0.07-2.48,0.17-3.71c0.31-3.82,1.08-7.52,2.26-11.04c1.45-4.4,3.54-8.52,6.15-12.25c1.19-1.71,2.49-3.33,3.89-4.86     c1-1.1,2.06-2.15,3.16-3.15" style="fill:none;stroke:#029AE4;stroke-width:2;stroke-linecap:round;stroke-linejoin:round;stroke-miterlimit:10;"/><path d="     M74.33,56.79c5.02,5.92,8.62,13.08,10.28,20.96" style="fill:none;stroke:#029AE4;stroke-width:2;stroke-linecap:round;stroke-linejoin:round;stroke-miterlimit:10;"/><path d="     M91.81,66.84c-0.76-4.25-2.09-8.31-3.909-12.09c-0.62-1.31-1.311-2.59-2.04-3.83c-1.181-1.98-2.5-3.85-3.94-5.63l-0.01-0.01" style="fill:none;stroke:#029AE4;stroke-width:2;stroke-linecap:round;stroke-linejoin:round;stroke-miterlimit:10;"/><path d="     M78.96,41.97c-0.79-0.81-1.59-1.58-2.44-2.32v-0.01h-0.01" style="fill:none;stroke:#029AE4;stroke-width:2;stroke-linecap:round;stroke-linejoin:round;stroke-miterlimit:10;"/><path d="     M76,87h18c3.31,0,6,2.69,6,6s-2.69,6-6,6h-8c-3.31,0-6,2.69-6,6s2.69,6,6,6h17" style="fill:none;stroke:#029AE4;stroke-width:2;stroke-linecap:round;stroke-linejoin:round;stroke-miterlimit:10;"/></g></g></g></svg>