<?xml version="1.0" standalone="no"?>
<!DOCTYPE svg PUBLIC "-//W3C//DTD SVG 20010904//EN"
 "http://www.w3.org/TR/2001/REC-SVG-20010904/DTD/svg10.dtd">
<svg version="1.0" xmlns="http://www.w3.org/2000/svg"
 width="700.000000pt" height="700.000000pt" viewBox="0 0 700.000000 700.000000"
 preserveAspectRatio="xMidYMid meet">
<metadata>
Created by potrace 1.11, written by Peter Selinger 2001-2013
</metadata>
<g transform="translate(0.000000,700.000000) scale(0.100000,-0.100000)"
fill="#000000" stroke="none">
<path d="M5367 6534 c-45 -16 -71 -38 -110 -94 -47 -67 -57 -89 -58 -129 -2
-43 12 -78 41 -109 12 -12 18 -28 14 -35 -4 -6 -137 -202 -296 -433 l-289
-422 -57 28 c-56 27 -136 57 -177 66 -172 39 -363 50 -507 29 -396 -59 -671
-260 -872 -636 l-42 -77 -17 43 c-10 24 -37 74 -59 112 -154 257 -385 443
-641 517 -82 24 -107 29 -227 46 -75 10 -271 5 -350 -10 -36 -7 -76 -14 -90
-17 -14 -2 -50 -13 -80 -23 -359 -120 -601 -430 -690 -883 -27 -142 -30 -161
-45 -330 -9 -94 -9 -315 0 -368 3 -24 9 -57 11 -74 47 -302 288 -735 613
-1105 36 -41 120 -130 186 -198 66 -68 121 -126 122 -130 2 -4 -9 -15 -25 -24
-15 -9 -85 -56 -157 -105 -71 -48 -296 -200 -500 -337 -203 -137 -391 -266
-417 -286 -70 -55 -135 -136 -174 -216 -38 -80 -42 -105 -17 -129 26 -26 176
-16 271 17 90 32 139 62 462 281 140 95 386 261 546 369 l291 196 59 -47 c33
-26 93 -71 134 -100 41 -30 76 -55 78 -56 1 -1 -39 -63 -89 -136 -51 -74 -131
-190 -178 -259 -47 -69 -136 -198 -198 -288 -62 -90 -113 -165 -113 -167 0 -3
-16 -25 -35 -51 -105 -137 -154 -269 -156 -417 -2 -101 38 -114 156 -52 131
69 186 129 360 384 125 184 253 371 374 546 46 66 103 150 128 187 l46 68 31
-19 c109 -66 347 -177 391 -183 11 -1 42 8 69 20 27 12 50 22 53 22 10 0 248
123 327 169 195 114 430 280 612 432 l81 68 524 -2 c514 -2 525 -2 569 -24 54
-26 112 -81 137 -132 26 -51 25 -182 -1 -235 -38 -75 -118 -135 -201 -150 -16
-3 -143 -6 -281 -6 -277 -1 -317 -7 -400 -58 -252 -156 -236 -530 29 -665 30
-15 74 -30 98 -34 24 -4 264 -7 532 -7 l489 -1 18 23 c20 24 17 54 -7 74 -12
9 -131 13 -512 13 -273 1 -507 5 -521 9 -121 39 -210 166 -197 284 13 118 89
211 200 243 17 5 147 9 291 10 291 1 333 7 419 62 136 87 199 233 170 391 -28
153 -150 276 -300 304 -28 5 -249 8 -492 8 -242 -1 -441 1 -441 3 0 2 42 45
93 95 279 276 503 565 650 837 76 140 154 339 176 451 6 29 14 67 18 83 3 17
7 126 7 243 l1 214 40 27 c22 15 193 130 380 256 187 125 386 259 442 298
l103 69 30 -26 c62 -52 119 -52 205 -1 130 76 167 174 106 280 -56 95 -186
279 -211 297 -14 10 -47 22 -75 27 -44 9 -56 7 -101 -14 -142 -69 -192 -143
-159 -236 11 -29 11 -40 2 -47 -7 -5 -151 -103 -322 -218 -170 -114 -352 -236
-404 -271 -51 -36 -97 -61 -101 -56 -5 4 -23 53 -41 108 -45 137 -114 274
-172 342 -19 21 -19 22 55 130 41 59 168 245 283 413 115 168 219 317 231 332
12 15 24 32 26 38 2 8 12 8 33 0 56 -22 126 -11 160 24 6 6 30 37 54 69 52 71
65 131 43 192 -21 57 -39 74 -187 175 -173 117 -205 129 -278 104z m83 -491
c0 -7 -23 -45 -51 -85 -28 -40 -86 -125 -130 -188 -43 -63 -83 -122 -89 -130
-10 -15 -43 -62 -199 -290 -43 -63 -186 -271 -317 -462 -132 -191 -288 -420
-349 -508 -60 -88 -110 -160 -111 -160 -2 0 -1 12 2 28 11 74 14 91 19 137 3
28 8 64 10 80 4 24 150 247 295 450 23 33 230 335 435 635 72 105 155 227 185
270 30 44 89 128 130 188 l74 109 48 -31 c26 -17 48 -36 48 -43z m673 -1083
c-4 -4 -100 -70 -213 -146 -113 -75 -326 -219 -475 -319 -549 -370 -606 -408
-609 -404 -1 2 -15 26 -30 53 -21 40 -24 52 -14 61 7 7 137 95 288 197 151
101 406 273 565 380 160 107 321 216 359 242 l69 46 35 -51 c18 -28 30 -55 25
-59z m-4235 -2772 c23 -18 41 -38 41 -44 1 -6 -83 -68 -186 -137 -104 -69
-354 -237 -558 -374 -203 -137 -386 -258 -406 -269 -37 -22 -110 -48 -167 -59
l-34 -7 18 33 c27 53 121 139 234 215 393 264 829 558 905 610 50 34 95 63
101 63 7 1 30 -14 52 -31z m568 -428 l42 -26 -31 -45 c-36 -53 -384 -559 -442
-644 -23 -33 -77 -112 -120 -175 -43 -63 -89 -128 -102 -143 -33 -41 -121
-114 -144 -120 -18 -5 -19 -2 -13 31 19 105 30 124 365 609 96 139 220 321
277 403 68 99 107 148 115 143 7 -4 31 -19 53 -33z"/>
</g>
</svg>
